<!DOCTYPE svg PUBLIC "-//W3C//DTD SVG 1.1//EN" "http://www.w3.org/Graphics/SVG/1.1/DTD/svg11.dtd">
<!-- Uploaded to: SVG Repo, www.svgrepo.com, Transformed by: SVG Repo Mixer Tools -->
<svg fill="#deae3c" version="1.1" id="Capa_1" xmlns="http://www.w3.org/2000/svg" xmlns:xlink="http://www.w3.org/1999/xlink" width="64px" height="64px" viewBox="0 0 45.909 45.909" xml:space="preserve">
<g id="SVGRepo_bgCarrier" stroke-width="0"/>
<g id="SVGRepo_tracerCarrier" stroke-linecap="round" stroke-linejoin="round"/>
<g id="SVGRepo_iconCarrier"> <g> <g> <path d="M30.837,18.677h-1.135c-0.183-0.938-0.521-1.667-0.986-2.366l0.816-0.833c0.176-0.175,0.272-0.419,0.272-0.666 c0-0.247-0.099-0.488-0.272-0.662l-0.703-0.705c-0.363-0.363-0.951-0.364-1.315-0.001l-0.864,0.838 c-0.695-0.443-1.4-0.769-2.339-0.942v-1.201c0-0.514-0.364-0.87-0.878-0.87h-0.994c-0.514,0-0.945,0.355-0.945,0.87v1.2 c-0.835,0.174-1.61,0.499-2.305,0.942l-0.834-0.837c-0.363-0.364-0.951-0.364-1.314,0l-0.702,0.702 c-0.175,0.175-0.273,0.411-0.273,0.658s0.099,0.484,0.273,0.658l0.817,0.85c-0.465,0.699-0.805,1.427-0.986,2.366h-1.136 c-0.514,0-0.844,0.352-0.844,0.866v0.993c0,0.514,0.331,0.854,0.844,0.854h1.136c0.181,0.939,0.521,1.673,0.986,2.373L16.338,24.6 c-0.175,0.175-0.273,0.422-0.273,0.668s0.098,0.488,0.273,0.662l0.702,0.705c0.364,0.364,0.953,0.365,1.316,0.002l0.831-0.838 c0.695,0.444,1.47,0.77,2.305,0.943v1.201c0,0.514,0.431,0.857,0.945,0.857h0.994c0.514,0,0.878-0.344,0.878-0.857v-1.201 c0.939-0.174,1.643-0.499,2.339-0.941l0.851,0.838c0.363,0.362,0.959,0.362,1.322,0l0.706-0.703 c0.175-0.174,0.274-0.411,0.274-0.658s-0.098-0.483-0.271-0.658l-0.816-0.855c0.465-0.699,0.805-1.433,0.986-2.373h1.135 c0.515,0,0.883-0.34,0.883-0.854v-0.993C31.72,19.029,31.352,18.677,30.837,18.677z M22.936,23.003 c-1.652,0-2.992-1.328-2.992-2.963c0-1.637,1.339-2.964,2.992-2.964c1.653,0,2.994,1.327,2.994,2.964 C25.929,21.675,24.589,23.003,22.936,23.003z"/> <path d="M31.089,0H14.79c-3.21,0-5.816,2.64-5.816,5.85v34.266c0,3.21,2.605,5.793,5.816,5.793h16.299 c3.211,0,5.847-2.583,5.847-5.793V5.85C36.937,2.64,34.3,0,31.089,0z M27.938,41.944h-9.98c-0.827,0-1.497-0.687-1.497-1.513 c0-0.828,0.669-1.514,1.497-1.514h9.98c0.827,0,1.497,0.686,1.497,1.514C29.435,41.258,28.765,41.944,27.938,41.944z M32.972,34.954H12.938V5.85c0-1.009,0.842-1.781,1.852-1.781h16.299c1.01,0,1.882,0.772,1.882,1.781L32.972,34.954L32.972,34.954 z"/> </g> </g> </g>
</svg>