<!DOCTYPE svg PUBLIC "-//W3C//DTD SVG 1.1//EN" "http://www.w3.org/Graphics/SVG/1.1/DTD/svg11.dtd">
<!-- Uploaded to: SVG Repo, www.svgrepo.com, Transformed by: SVG Repo Mixer Tools -->
<svg fill="#deae3c" height="64px" width="64px" version="1.1" id="Capa_1" xmlns="http://www.w3.org/2000/svg" xmlns:xlink="http://www.w3.org/1999/xlink" viewBox="0 0 488.001 488.001" xml:space="preserve">
<g id="SVGRepo_bgCarrier" stroke-width="0"/>
<g id="SVGRepo_tracerCarrier" stroke-linecap="round" stroke-linejoin="round"/>
<g id="SVGRepo_iconCarrier"> <g> <path d="M484.534,216.061l-73-34c-0.793-0.369-1.658-0.561-2.533-0.561h-35c-0.875,0-1.74,0.191-2.533,0.561L343,195.318V182.5h10 c2.637,0,4.965-1.722,5.737-4.243c0.772-2.521-0.192-5.251-2.376-6.728l-20.86-14.103V108.5c0-3.313-2.687-6-6-6h-28 c-3.313,0-6,2.687-6,6v21.884l-10.14-6.855c-0.992-0.671-2.163-1.029-3.36-1.029h-76c-1.198,0-2.368,0.358-3.36,1.029l-10.14,6.855 V108.5c0-3.313-2.687-6-6-6h-28c-3.313,0-6,2.687-6,6v48.927l-20.86,14.103c-2.185,1.477-3.149,4.207-2.376,6.728 c0.772,2.521,3.1,4.243,5.737,4.243h10v12.817l-28.467-13.257c-0.793-0.369-1.658-0.561-2.533-0.561H79 c-0.875,0-1.74,0.191-2.533,0.561l-73,34c-2.551,1.188-3.933,3.989-3.325,6.736C0.751,225.545,3.186,227.5,6,227.5h9v152 c0,3.313,2.687,6,6,6h446c3.313,0,6-2.687,6-6v-152h9c2.814,0,5.25-1.955,5.858-4.703 C488.467,220.05,487.084,217.249,484.534,216.061z M375.329,193.5h32.343l47.235,22H343v-6.945L375.329,193.5z M434.5,264.5h-68 v-15h68V264.5z M461,276.5v11H343v-11H461z M307.5,114.5h16v34.814l-16-10.817V114.5z M207.838,134.5h72.324l53.25,36H154.588 L207.838,134.5z M164.5,114.5h16v23.997l-16,10.817V114.5z M27,276.5h118v11H27V276.5z M120,264.5H52v-15h68V264.5z M80.329,193.5 h32.343L145,208.556v6.945H33.094L80.329,193.5z M145,227.5v37h-13v-21c0-3.313-2.687-6-6-6H46c-3.313,0-6,2.687-6,6v21H27v-37H145 z M27,299.5h118v74H27V299.5z M200,373.5h-25V321c0-6.893,5.607-12.5,12.5-12.5S200,314.108,200,321V373.5z M256.5,373.5h-25V321 c0-6.893,5.607-12.5,12.5-12.5s12.5,5.607,12.5,12.5V373.5z M313,373.5h-25V321c0-6.893,5.607-12.5,12.5-12.5S313,314.108,313,321 V373.5z M325,373.5V321c0-13.51-10.991-24.5-24.5-24.5S276,307.491,276,321v52.5h-7.5V321c0-13.51-10.991-24.5-24.5-24.5 c-13.509,0-24.5,10.99-24.5,24.5v52.5H212V321c0-13.51-10.991-24.5-24.5-24.5S163,307.491,163,321v52.5h-6v-191h174v191H325z M343,373.5v-74h118v74H343z M461,264.5h-14.5v-21c0-3.313-2.687-6-6-6h-80c-3.313,0-6,2.687-6,6v21H343v-37h118V264.5z"/> <path d="M187.5,195.5c-13.509,0-24.5,10.99-24.5,24.5v43.5c0,3.313,2.687,6,6,6h37c3.313,0,6-2.687,6-6V220 C212,206.491,201.01,195.5,187.5,195.5z M200,257.5h-25V220c0-6.893,5.607-12.5,12.5-12.5S200,213.108,200,220V257.5z"/> <path d="M244,195.5c-13.509,0-24.5,10.99-24.5,24.5v43.5c0,3.313,2.687,6,6,6h37c3.313,0,6-2.687,6-6V220 C268.5,206.491,257.51,195.5,244,195.5z M256.5,257.5h-25V220c0-6.893,5.607-12.5,12.5-12.5s12.5,5.607,12.5,12.5V257.5z"/> <path d="M300.5,195.5c-13.509,0-24.5,10.99-24.5,24.5v43.5c0,3.313,2.687,6,6,6h37c3.313,0,6-2.687,6-6V220 C325,206.491,314.01,195.5,300.5,195.5z M313,257.5h-25V220c0-6.893,5.607-12.5,12.5-12.5S313,213.108,313,220V257.5z"/> <path d="M133.5,307.5h-39c-3.313,0-6,2.687-6,6v39c0,3.313,2.687,6,6,6h39c3.313,0,6-2.687,6-6v-39 C139.5,310.187,136.814,307.5,133.5,307.5z M127.5,346.5h-27v-27h27V346.5z"/> <path d="M77.5,307.5h-39c-3.313,0-6,2.687-6,6v39c0,3.313,2.687,6,6,6h39c3.313,0,6-2.687,6-6v-39 C83.5,310.187,80.814,307.5,77.5,307.5z M71.5,346.5h-27v-27h27V346.5z"/> <path d="M448,307.5h-39c-3.313,0-6,2.687-6,6v39c0,3.313,2.687,6,6,6h39c3.313,0,6-2.687,6-6v-39 C454,310.187,451.314,307.5,448,307.5z M442,346.5h-27v-27h27V346.5z"/> <path d="M392,307.5h-39c-3.313,0-6,2.687-6,6v39c0,3.313,2.687,6,6,6h39c3.313,0,6-2.687,6-6v-39 C398,310.187,395.314,307.5,392,307.5z M386,346.5h-27v-27h27V346.5z"/> </g> </g>
</svg>