<!DOCTYPE svg PUBLIC "-//W3C//DTD SVG 1.1//EN" "http://www.w3.org/Graphics/SVG/1.1/DTD/svg11.dtd">
<!-- Uploaded to: SVG Repo, www.svgrepo.com, Transformed by: SVG Repo Mixer Tools -->
<svg fill="#deae3c" height="64px" width="64px" version="1.1" id="Layer_1" xmlns="http://www.w3.org/2000/svg" xmlns:xlink="http://www.w3.org/1999/xlink" viewBox="0 0 512 512" xml:space="preserve">
<g id="SVGRepo_bgCarrier" stroke-width="0"/>
<g id="SVGRepo_tracerCarrier" stroke-linecap="round" stroke-linejoin="round"/>
<g id="SVGRepo_iconCarrier"> <g transform="translate(1 1)"> <g> <g> <path d="M468.333,41.667C468.333,17.773,449.56-1,425.667-1H84.333C60.44-1,41.667,17.773,41.667,40.813L-1,501.613 c0,2.56,0.853,5.12,2.56,6.827c1.707,1.707,3.413,2.56,5.973,2.56h34.133c4.267,0,8.533-3.413,8.533-7.68L92.013,50.2h94.72 v8.533c0,5.12,3.413,8.533,8.533,8.533s8.533-3.413,8.533-8.533V50.2h102.4v8.533c0,5.12,3.413,8.533,8.533,8.533 s8.533-3.413,8.533-8.533V50.2h94.72L459.8,503.32c0.853,4.267,4.267,7.68,8.533,7.68h34.133c2.56,0,4.267-0.853,5.973-2.56 c1.707-1.707,2.56-4.267,2.56-6.827L468.333,41.667z M476.013,493.933L434.2,40.813c-0.853-4.267-4.267-7.68-8.533-7.68H84.333 c-4.267,0-7.68,3.413-8.533,7.68l-41.813,453.12H16.92L58.733,41.667c0-14.507,11.093-25.6,25.6-25.6h341.333 c14.507,0,25.6,11.093,25.6,26.453l41.813,451.413H476.013z"/> <path d="M186.733,144.067c0,5.12,3.413,8.533,8.533,8.533s8.533-3.413,8.533-8.533V127c0-5.12-3.413-8.533-8.533-8.533 s-8.533,3.413-8.533,8.533V144.067z"/> <path d="M186.733,186.733c0,5.12,3.413,8.533,8.533,8.533s8.533-3.413,8.533-8.533v-17.067c0-5.12-3.413-8.533-8.533-8.533 s-8.533,3.413-8.533,8.533V186.733z"/> <path d="M195.267,109.933c5.12,0,8.533-3.413,8.533-8.533V84.333c0-5.12-3.413-8.533-8.533-8.533s-8.533,3.413-8.533,8.533V101.4 C186.733,106.52,190.147,109.933,195.267,109.933z"/> <path d="M186.733,229.4c0,5.12,3.413,8.533,8.533,8.533s8.533-3.413,8.533-8.533v-17.067c0-5.12-3.413-8.533-8.533-8.533 s-8.533,3.413-8.533,8.533V229.4z"/> <path d="M306.2,144.067c0,5.12,3.413,8.533,8.533,8.533s8.533-3.413,8.533-8.533V127c0-5.12-3.413-8.533-8.533-8.533 S306.2,121.88,306.2,127V144.067z"/> <path d="M306.2,186.733c0,5.12,3.413,8.533,8.533,8.533s8.533-3.413,8.533-8.533v-17.067c0-5.12-3.413-8.533-8.533-8.533 s-8.533,3.413-8.533,8.533V186.733z"/> <path d="M306.2,229.4c0,5.12,3.413,8.533,8.533,8.533s8.533-3.413,8.533-8.533v-17.067c0-5.12-3.413-8.533-8.533-8.533 s-8.533,3.413-8.533,8.533V229.4z"/> <path d="M314.733,109.933c5.12,0,8.533-3.413,8.533-8.533V84.333c0-5.12-3.413-8.533-8.533-8.533s-8.533,3.413-8.533,8.533V101.4 C306.2,106.52,309.613,109.933,314.733,109.933z"/> <path d="M360.813,364.227c-0.055-0.277-0.123-0.55-0.199-0.819L352.28,293.4c-2.299-15.33-14.239-27.21-29.013-29.471V255 c0-5.12-3.413-8.533-8.533-8.533S306.2,249.88,306.2,255v8.533H203.8V255c0-5.12-3.413-8.533-8.533-8.533 s-8.533,3.413-8.533,8.533v9.064c-14.54,2.568-26.656,14.292-28.16,29.336l-8.021,67.374c-0.644,1.037-1.117,2.206-1.366,3.453 l-1.707,17.067c-1.707,19.627,8.533,37.547,26.453,45.227c25.6,11.093,52.907,16.213,81.067,16.213 c28.16,0,55.467-5.12,81.067-16.213c17.92-7.68,29.013-26.453,26.453-45.227L360.813,364.227z M191.853,280.6h126.293 c8.533,0,16.213,6.827,17.067,15.36l7.573,60.587H168.055l6.732-60.587C175.64,287.427,183.32,280.6,191.853,280.6z M164.547,383.853l0.853-9.387h81.067v51.222c-22.736-0.969-45.322-5.806-66.56-14.528 C169.667,406.893,162.84,394.947,164.547,383.853z M330.093,411.16c-21.238,8.723-43.824,13.559-66.56,14.528v-51.222H344.6 l0.853,9.387C347.16,395.8,341.187,406.893,330.093,411.16z"/> </g> </g> </g> </g>
</svg>