<?xml version="1.0" encoding="iso-8859-1"?>
<!-- Uploaded to: SVG Repo, www.svgrepo.com, Generator: SVG Repo Mixer Tools -->
<!DOCTYPE svg PUBLIC "-//W3C//DTD SVG 1.1//EN" "http://www.w3.org/Graphics/SVG/1.1/DTD/svg11.dtd">
<svg fill="#000000" version="1.1" id="Capa_1" xmlns="http://www.w3.org/2000/svg" xmlns:xlink="http://www.w3.org/1999/xlink" 
	 width="800px" height="800px" viewBox="0 0 965.588 965.587"
	 xml:space="preserve">
<g>
	<g>
		<path d="M924,641.641c5.522,0,10-4.478,10-10v-46.088c0-4.472-2.968-8.399-7.269-9.62l-255.13-72.431
			c-0.888-0.252-1.807-0.38-2.73-0.38H555.137c-5.522,0-10,4.477-10,10v118.519c0,5.522,4.478,10,10,10H924z"/>
		<path d="M364.522,94.514c5.523,0,10-4.477,10-10V43.013c0-5.523-4.477-10-10-10h-177.01c-5.523,0-10,4.477-10,10v41.501
			c0,5.523,4.477,10,10,10H364.522z"/>
		<path d="M965.588,922.574v-26.169c0-5.522-4.477-10-10-10h-21.589v-213.51c0-5.523-4.477-10-10-10H531.556
			c-5.522,0-10-4.477-10-10V247.496c0-5.523-4.477-10-10-10h-53.528c-5.523,0-10-4.477-10-10v-103.92c0-5.523-4.478-10-10-10
			H114.009c-5.523,0-10,4.477-10,10v103.921c0,5.523-4.477,10-10,10h-50.42c-5.523,0-10,4.477-10,10v415.399v161.535v61.975H10
			c-5.523,0-10,4.478-10,10v26.169c0,5.523,4.477,10,10,10h945.589C961.111,932.574,965.588,928.097,965.588,922.574z
			 M439.255,709.228c0,5.523-4.477,10-10,10H122.781c-5.523,0-10-4.477-10-10v-32c0-5.523,4.477-10,10-10h306.474
			c5.523,0,10,4.477,10,10V709.228z M439.255,630.228c0,5.523-4.477,10-10,10H122.781c-5.523,0-10-4.477-10-10v-32
			c0-5.523,4.477-10,10-10h306.474c5.523,0,10,4.477,10,10V630.228z M439.255,551.228c0,5.523-4.477,10-10,10H122.781
			c-5.523,0-10-4.477-10-10v-32c0-5.523,4.477-10,10-10h306.474c5.523,0,10,4.477,10,10V551.228z M439.255,472.228
			c0,5.523-4.477,10-10,10H122.781c-5.523,0-10-4.477-10-10v-32c0-5.523,4.477-10,10-10h306.474c5.523,0,10,4.477,10,10V472.228z
			 M439.255,393.228c0,5.523-4.477,10-10,10H122.781c-5.523,0-10-4.477-10-10v-32c0-5.523,4.477-10,10-10h306.474
			c5.523,0,10,4.477,10,10V393.228z M819.783,886.405H642.234v-88.792c0-5.522,4.477-10,10-10h157.549c5.522,0,10,4.478,10,10
			V886.405z"/>
	</g>
</g>
</svg>