<?xml version="1.0" encoding="iso-8859-1"?>
<!-- Uploaded to: SVG Repo, www.svgrepo.com, Generator: SVG Repo Mixer Tools -->
<svg fill="#000000" version="1.1" id="Capa_1" xmlns="http://www.w3.org/2000/svg" xmlns:xlink="http://www.w3.org/1999/xlink" 
	 viewBox="0 0 60 60" xml:space="preserve">
<g>
	<g>
		<path d="M2,21c0-2.8,2.2-5,5-5h1.3l2.8,7.4c0.1,0.3,0.5,0.6,0.9,0.6s0.8-0.3,1.1-0.6l2.8-7.4H17c2.8,0,5,2.2,5,5v14h2V21
			c0-3.9-3.1-7-7-7H7c-3.9,0-7,3.1-7,7v14h2L2,21L2,21z M12.1,20.2L10.5,16h3.2L12.1,20.2z"/>
		<rect x="11" y="26" width="2" height="2"/>
		<rect x="11" y="30" width="2" height="2"/>
		<path d="M11,13h2c2.8,0,5-2.2,5-5V5c0-2.8-2.2-5-5-5h-2C8.2,0,6,2.2,6,5v3C6,10.8,8.2,13,11,13z M8,5c0-1.7,1.3-3,3-3h2
			c1.7,0,3,1.3,3,3v3c0,1.7-1.3,3-3,3h-2c-1.7,0-3-1.3-3-3V5z"/>
		<path d="M53,14H43c-3.9,0-7,3.1-7,7v14h2V21c0-2.8,2.2-5,5-5h1.3l2.8,7.4c0.1,0.3,0.5,0.6,0.9,0.6s0.8-0.3,1.1-0.6l2.8-7.4H53
			c2.8,0,5,2.2,5,5v14h2V21C60,17.1,56.9,14,53,14z M48.1,20.2L46.5,16h3.2L48.1,20.2z"/>
		<rect x="47" y="26" width="2" height="2"/>
		<rect x="47" y="30" width="2" height="2"/>
		<path d="M47,13h2c2.8,0,5-2.2,5-5V5c0-2.8-2.2-5-5-5h-2c-2.8,0-5,2.2-5,5v3C42,10.8,44.2,13,47,13z M44,5c0-1.7,1.3-3,3-3h2
			c1.7,0,3,1.3,3,3v3c0,1.7-1.3,3-3,3h-2c-1.7,0-3-1.3-3-3V5z"/>
		<path d="M29.1,23.4c0.1,0.3,0.5,0.6,0.9,0.6s0.8-0.3,1.1-0.6l2.8-7.4H36v-2H24v2h2.3L29.1,23.4z M30.1,20.2L28.5,16h3.2L30.1,20.2
			z"/>
		<rect x="29" y="26" width="2" height="2"/>
		<rect x="29" y="30" width="2" height="2"/>
		<path d="M29,13h2c2.8,0,5-2.2,5-5V5c0-2.8-2.2-5-5-5h-2c-2.8,0-5,2.2-5,5v3C24,10.8,26.2,13,29,13z M26,5c0-1.7,1.3-3,3-3h2
			c1.7,0,3,1.3,3,3v3c0,1.7-1.3,3-3,3h-2c-1.7,0-3-1.3-3-3V5z"/>
		<path d="M59,55h-4V22h-2v33h-4V36h-2v19h-4V22h-2v33h-4V40h-2v15h-4V36h-2v19h-4V40h-2v15h-4V22h-2v33h-4V36h-2v19H7V22H5v33H1
			c-0.6,0-1,0.4-1,1v4h2v-3h4h6h6h6h6h6h6h6h6h4v3h2v-4C60,55.4,59.6,55,59,55z"/>
	</g>
</g>
</svg>